<?xml version="1.0" standalone="no"?>
<!DOCTYPE svg PUBLIC "-//W3C//DTD SVG 20010904//EN"
 "http://www.w3.org/TR/2001/REC-SVG-20010904/DTD/svg10.dtd">
<svg version="1.0" xmlns="http://www.w3.org/2000/svg"
 width="900.000000pt" height="333.000000pt" viewBox="0 0 900.000000 333.000000"
 preserveAspectRatio="xMidYMid meet">
<metadata>
Created by potrace 1.10, written by Peter Selinger 2001-2011
</metadata>
<g transform="translate(0.000000,333.000000) scale(0.100000,-0.100000)"
fill="#000000" stroke="none">
<path d="M1730 2255 c-14 -8 -34 -14 -46 -15 -11 0 -29 -7 -40 -15 -10 -8 -24
-15 -30 -15 -20 0 -115 -69 -164 -118 -51 -51 -110 -135 -110 -156 0 -8 -7
-19 -15 -26 -8 -7 -15 -21 -15 -32 0 -10 -7 -32 -15 -49 -23 -44 -22 -291 1
-345 49 -116 85 -173 153 -245 40 -44 77 -79 82 -79 4 0 27 -13 51 -28 72 -46
137 -66 266 -79 171 -17 380 71 488 204 21 27 41 50 44 53 17 16 61 106 83
170 31 90 29 292 -4 380 -24 66 -44 109 -50 110 -3 0 -20 -16 -39 -35 -37 -38
-37 -35 8 -120 12 -23 16 -60 16 -151 0 -118 -9 -164 -45 -224 -5 -8 -12 -22
-16 -30 -31 -70 -138 -171 -228 -214 -100 -48 -206 -63 -305 -43 -85 18 -145
38 -162 55 -7 7 -17 12 -24 12 -21 0 -149 127 -172 171 -12 24 -26 51 -31 59
-41 73 -55 276 -25 358 66 187 177 296 360 355 66 22 211 23 261 2 19 -8 43
-15 53 -15 10 0 23 -7 30 -15 17 -20 24 -19 59 11 33 28 42 64 15 64 -9 0 -28
6 -42 14 -69 34 -131 46 -248 46 -84 -1 -126 -5 -144 -15z"/>
<path d="M2288 2219 c-23 -29 -58 -67 -77 -85 -31 -31 -33 -37 -28 -81 l6 -48
-165 -163 c-144 -143 -163 -165 -154 -182 16 -30 33 -25 73 21 19 23 91 98
159 166 l123 125 46 -5 c42 -5 49 -3 75 24 16 17 53 49 82 71 38 30 52 47 50
62 -3 18 -10 21 -58 21 l-55 0 -3 63 c-4 78 -16 79 -74 11z"/>
<path d="M1785 2072 c-33 -9 -85 -31 -116 -49 -54 -30 -132 -107 -150 -148 -5
-11 -13 -27 -18 -35 -22 -37 -41 -120 -41 -175 1 -162 99 -314 249 -386 59
-28 73 -31 171 -31 103 0 108 1 184 37 56 28 91 53 127 94 27 30 49 60 49 66
0 6 5 16 11 22 45 45 64 231 33 315 -25 67 -48 108 -60 108 -6 0 -21 -11 -34
-26 l-24 -25 18 -47 c11 -26 21 -80 23 -121 5 -75 3 -82 -45 -176 -24 -46 -96
-111 -149 -135 -62 -28 -209 -31 -248 -6 -13 9 -30 16 -37 16 -17 0 -75 54
-113 103 -59 79 -81 203 -50 283 57 144 138 209 301 240 31 6 144 -25 170 -47
11 -9 74 44 74 62 0 10 -62 40 -123 59 -63 19 -138 20 -202 2z"/>
<path d="M2819 2026 c-2 -2 -4 -89 -4 -193 l0 -188 44 -3 44 -3 -5 78 c-9 129
11 139 62 31 46 -99 55 -108 107 -108 42 0 52 9 33 33 -69 87 -100 128 -100
136 0 5 9 12 20 16 29 9 60 54 60 86 0 40 -29 85 -68 103 -30 15 -181 24 -193
12z m162 -76 c45 -24 7 -90 -52 -90 -30 0 -42 25 -32 71 5 24 11 29 35 29 16
0 38 -5 49 -10z"/>
<path d="M3177 2023 c-2 -5 -4 -91 -3 -193 l1 -185 108 -3 c117 -3 126 1 113
54 -7 26 -9 27 -67 21 -52 -4 -61 -3 -70 15 -6 11 -8 31 -4 45 5 23 9 25 63
21 l57 -3 3 39 3 39 -56 -5 c-48 -4 -58 -2 -66 15 -6 10 -8 30 -5 43 6 23 11
25 65 23 32 -1 63 1 69 5 16 9 15 49 0 64 -13 13 -204 17 -211 5z"/>
<path d="M3508 1999 c-35 -28 -38 -35 -38 -80 0 -45 3 -50 37 -74 21 -14 43
-25 49 -25 7 0 33 -9 57 -19 53 -23 68 -53 41 -82 -26 -28 -59 -23 -102 16
-33 29 -43 33 -68 26 -39 -11 -34 -36 18 -83 37 -35 45 -38 100 -38 95 0 137
36 138 116 0 45 -3 54 -27 70 -27 18 -75 39 -118 51 -45 13 -60 48 -30 73 25
20 64 14 95 -15 36 -35 74 -32 78 7 3 22 -5 33 -39 57 -35 26 -51 31 -98 31
-47 -1 -62 -5 -93 -31z"/>
<path d="M3827 2023 c-3 -5 -2 -76 1 -159 5 -160 8 -169 62 -207 16 -11 44
-17 81 -17 49 0 60 4 94 33 l39 34 9 146 c5 81 7 154 3 162 -7 19 -75 21 -77
3 -1 -7 0 -68 1 -136 2 -116 1 -125 -21 -148 -29 -31 -63 -31 -95 1 -25 25
-25 30 -24 143 2 165 5 152 -34 152 -19 0 -37 -3 -39 -7z"/>
<path d="M4232 2018 c-8 -8 -12 -50 -12 -122 0 -63 -7 -139 -15 -174 -8 -35
-13 -68 -9 -73 3 -5 23 -9 45 -9 l39 0 0 118 c0 133 8 156 39 128 12 -11 21
-29 21 -40 0 -12 6 -41 14 -66 8 -25 20 -65 28 -90 12 -40 16 -45 43 -45 27 0
31 4 37 40 4 22 13 60 21 85 7 25 20 66 27 93 21 72 40 61 41 -25 2 -126 6
-174 13 -186 4 -7 23 -12 42 -12 l34 0 0 58 c0 31 -7 98 -15 147 -8 50 -15
112 -15 138 l0 48 -57 -3 c-57 -3 -58 -3 -64 -38 -3 -19 -11 -45 -17 -57 -7
-12 -12 -29 -12 -39 0 -28 -33 -94 -47 -94 -7 0 -13 8 -13 19 0 25 -27 116
-51 169 -18 40 -21 42 -62 42 -24 0 -48 -5 -55 -12z"/>
<path d="M4734 2017 c-2 -7 -3 -94 -2 -192 l3 -180 110 0 110 0 3 26 c5 43
-19 58 -74 48 -57 -11 -76 1 -72 45 3 31 3 31 63 31 l60 0 3 34 c4 42 -9 51
-60 39 -46 -10 -68 2 -68 36 0 40 14 48 76 45 56 -4 59 -3 68 23 17 48 -3 58
-116 58 -71 0 -100 -4 -104 -13z"/>
<path d="M5194 2019 c-4 -7 -7 -93 -7 -193 l0 -181 91 -3 c76 -2 98 1 131 17
33 17 40 27 46 60 8 49 -1 81 -28 103 -21 16 -21 18 -6 60 34 91 -24 148 -153
148 -39 0 -70 -5 -74 -11z m147 -69 c30 -16 26 -68 -7 -80 -14 -6 -32 -10 -39
-10 -21 0 -37 37 -30 71 5 23 12 29 31 29 14 0 34 -5 45 -10z m15 -146 c26
-13 34 -22 34 -44 0 -31 -31 -50 -84 -50 -29 0 -34 4 -40 30 -8 42 8 80 35 80
11 0 36 -7 55 -16z"/>
<path d="M5539 2023 c-1 -5 -1 -75 1 -158 2 -162 7 -176 63 -209 40 -23 118
-21 161 5 55 32 67 78 64 234 l-3 130 -37 3 c-31 3 -38 0 -39 -15 0 -10 0 -73
1 -140 1 -113 0 -123 -21 -142 -30 -28 -64 -26 -96 5 -25 25 -26 27 -21 147 3
67 3 128 1 135 -5 13 -72 17 -74 5z"/>
<path d="M5928 1848 c-2 -101 -1 -189 1 -196 2 -8 16 -12 40 -10 l36 3 0 190
0 190 -37 3 -37 3 -3 -183z"/>
<path d="M6110 1836 l0 -196 99 0 c90 0 100 2 106 20 12 38 -11 59 -68 62
l-52 3 0 150 0 150 -42 3 -43 3 0 -195z"/>
<path d="M6380 1835 l0 -195 85 0 c100 0 148 19 191 75 24 32 27 44 27 119 0
76 -3 87 -28 120 -40 53 -100 76 -196 76 l-79 0 0 -195z m174 105 c52 -19 72
-107 39 -174 -14 -29 -24 -37 -62 -45 -75 -16 -81 -8 -81 113 0 56 3 106 7
109 10 10 68 8 97 -3z"/>
<path d="M6777 2023 c-4 -3 -7 -91 -7 -195 l0 -188 109 0 c103 0 109 1 114 22
3 12 1 30 -5 41 -9 17 -17 19 -63 14 -62 -6 -78 5 -73 50 3 26 6 28 53 29 28
1 56 2 63 3 9 1 12 12 10 34 -3 32 -4 32 -55 32 -61 0 -76 11 -71 51 3 28 5
29 62 29 49 0 61 4 73 22 11 17 12 26 3 42 -10 19 -20 21 -109 21 -54 0 -101
-3 -104 -7z"/>
<path d="M7087 2022 c-3 -4 -7 -90 -8 -192 l-3 -185 42 -3 43 -3 -2 85 c-2 47
1 89 4 93 12 11 32 -16 75 -97 l39 -75 46 -3 c32 -2 47 1 47 9 0 6 -26 46 -57
87 -38 49 -54 77 -45 80 7 2 26 15 42 29 25 20 30 32 30 66 -1 78 -58 117
-174 117 -41 0 -77 -3 -79 -8z m154 -72 c30 -16 26 -68 -7 -80 -45 -18 -71
-13 -76 15 -3 14 -3 36 0 50 3 20 10 25 34 25 16 0 38 -5 49 -10z"/>
<path d="M1823 1887 c-58 -16 -130 -79 -154 -134 -81 -189 116 -386 302 -304
58 26 103 74 128 139 26 66 27 113 2 143 -16 20 -21 22 -35 9 -23 -18 -37 -46
-41 -80 -15 -116 -137 -178 -221 -113 -106 81 -72 227 59 252 46 8 105 46 106
68 1 12 -60 34 -89 32 -8 -1 -34 -6 -57 -12z"/>
<path d="M3284 1477 c-3 -8 -4 -54 -2 -103 l3 -89 37 -3 c50 -4 88 21 88 59 0
15 -4 30 -9 34 -5 3 -7 21 -4 40 5 28 1 38 -18 55 -27 22 -87 27 -95 7z m69
-52 c8 -18 -11 -31 -25 -17 -11 11 -3 32 12 32 4 0 10 -7 13 -15z m20 -70 c-1
-5 -8 -14 -17 -20 -18 -11 -42 7 -31 25 8 13 51 9 48 -5z"/>
<path d="M3440 1413 c0 -70 2 -79 27 -105 32 -33 55 -35 94 -7 28 20 29 23 29
105 0 76 -2 85 -17 82 -15 -3 -19 -16 -21 -70 -2 -54 -7 -70 -21 -78 -32 -17
-54 19 -46 74 8 48 -4 76 -31 76 -11 0 -14 -18 -14 -77z"/>
<path d="M3633 1473 c-10 -22 -10 -164 1 -181 12 -20 35 -14 41 11 3 12 5 58
3 102 -2 65 -6 80 -20 83 -9 2 -20 -5 -25 -15z"/>
<path d="M3717 1483 c-12 -12 -8 -178 5 -191 7 -7 27 -12 45 -12 46 0 55 26
19 55 -24 19 -26 27 -25 77 1 30 -1 60 -5 67 -8 12 -29 15 -39 4z"/>
<path d="M3836 1474 c-3 -9 -6 -51 -6 -94 0 -68 3 -81 19 -90 29 -15 73 -12
101 7 14 9 26 17 27 18 1 0 9 17 17 36 28 69 -28 139 -112 139 -27 0 -42 -5
-46 -16z m112 -67 c6 -32 -7 -64 -28 -70 -26 -7 -37 14 -32 59 4 31 7 35 31
32 16 -2 27 -10 29 -21z"/>
<path d="M4070 1479 c0 -6 14 -31 30 -56 23 -34 30 -55 30 -94 0 -42 3 -49 19
-49 27 0 36 17 36 72 0 28 7 53 16 65 9 10 20 28 24 41 10 34 -21 40 -46 8
-25 -32 -33 -33 -47 -1 -8 17 -20 25 -37 25 -14 0 -25 -5 -25 -11z"/>
<path d="M4283 1464 c-30 -23 -33 -30 -33 -79 0 -49 3 -56 33 -79 19 -15 44
-26 57 -26 13 0 38 11 57 26 30 23 33 30 33 79 0 49 -3 56 -33 79 -43 33 -73
33 -114 0z m91 -40 c10 -4 16 -18 16 -39 0 -34 -13 -45 -54 -45 -28 0 -46 18
-46 45 0 38 39 56 84 39z"/>
<path d="M4460 1416 c0 -66 3 -78 26 -105 32 -38 71 -41 103 -7 19 21 22 32
19 102 -2 62 -6 79 -18 79 -12 0 -16 -15 -18 -65 -2 -46 -8 -69 -19 -77 -27
-21 -43 3 -43 62 0 66 -7 85 -31 85 -17 0 -19 -8 -19 -74z"/>
<path d="M4663 1483 c-16 -6 -18 -189 -3 -198 17 -10 40 15 40 42 0 31 22 26
30 -7 7 -28 32 -45 54 -37 15 6 15 10 -6 47 -19 33 -21 42 -10 57 25 36 24 45
-4 74 -27 28 -66 37 -101 22z m64 -58 c7 -20 -2 -29 -21 -22 -9 4 -13 13 -10
22 8 19 23 19 31 0z"/>
<path d="M4884 1477 c-3 -8 -4 -54 -2 -103 3 -81 5 -89 23 -89 12 0 21 9 25
24 8 34 28 38 39 8 12 -30 27 -41 47 -33 13 5 12 11 -6 45 -18 31 -20 42 -11
59 18 35 13 68 -14 86 -30 19 -94 21 -101 3z m84 -60 c2 -10 -3 -17 -12 -17
-18 0 -29 16 -21 31 9 14 29 6 33 -14z"/>
<path d="M5064 1477 c-3 -8 -4 -54 -2 -103 l3 -89 48 -3 c42 -3 47 -1 47 18 0
14 -9 24 -30 31 -37 13 -39 37 -5 41 33 4 33 22 0 26 -34 4 -30 34 5 42 16 4
26 14 28 28 3 20 -1 22 -43 22 -29 0 -48 -5 -51 -13z"/>
<path d="M5218 1473 c-40 -46 -20 -92 46 -107 26 -6 28 -9 14 -23 -12 -12 -20
-13 -36 -4 -20 11 -52 6 -52 -8 0 -17 48 -51 71 -51 33 1 69 33 69 63 0 29
-28 57 -58 57 -15 0 -22 6 -22 20 0 18 4 20 40 14 32 -5 40 -3 40 9 0 19 -43
47 -73 47 -13 0 -31 -8 -39 -17z"/>
<path d="M5360 1410 c0 -74 2 -81 27 -105 15 -14 37 -25 48 -25 11 0 33 11 48
25 25 24 27 31 27 105 0 63 -3 80 -14 80 -23 0 -29 -18 -27 -81 1 -47 -2 -60
-16 -68 -13 -6 -24 -5 -37 5 -16 11 -18 21 -12 59 6 50 -6 85 -29 85 -12 0
-15 -16 -15 -80z"/>
<path d="M5561 1473 c-16 -32 -24 -180 -10 -188 17 -11 39 22 39 57 0 45 29
36 36 -12 4 -22 10 -43 15 -45 12 -8 39 37 46 78 8 54 27 40 33 -24 4 -39 9
-54 20 -54 13 0 14 16 11 95 -2 52 -5 98 -8 103 -2 4 -13 7 -24 7 -14 0 -26
-16 -44 -56 -25 -57 -45 -64 -45 -16 0 55 -48 93 -69 55z"/>
<path d="M5807 1484 c-12 -13 -8 -179 5 -192 18 -18 87 -15 94 3 9 21 -14 45
-39 42 -34 -3 -27 27 7 33 39 7 39 23 1 30 -34 6 -42 34 -10 36 43 2 46 4 43
27 -3 19 -10 22 -48 25 -25 2 -49 0 -53 -4z"/>
<path d="M6014 1477 c-3 -8 -4 -54 -2 -103 l3 -89 48 -3 c45 -3 47 -2 47 22 0
19 -5 26 -19 26 -21 0 -45 23 -34 33 3 4 17 7 30 7 14 0 23 6 23 15 0 9 -9 15
-23 15 -13 0 -27 3 -30 7 -10 10 13 32 27 27 17 -7 40 22 32 41 -7 20 -94 21
-102 2z"/>
<path d="M6190 1448 c-11 -23 -20 -49 -20 -58 0 -9 -7 -25 -15 -36 -17 -23
-20 -74 -4 -74 7 0 25 14 41 30 15 17 32 30 36 30 5 0 21 -13 37 -30 16 -16
33 -30 37 -30 18 0 20 32 5 63 -15 31 -40 95 -51 130 -10 32 -44 20 -66 -25z
m49 -47 c16 -10 6 -31 -14 -31 -17 0 -28 17 -20 30 8 12 16 12 34 1z"/>
<path d="M6357 1472 c-36 -40 -13 -92 46 -106 16 -4 27 -12 24 -19 -4 -13 -32
-14 -59 -2 -30 12 -35 -24 -7 -46 30 -23 52 -24 84 -3 45 29 26 95 -30 106
-11 2 -21 11 -23 21 -3 15 2 17 37 11 47 -7 56 9 21 39 -26 22 -73 22 -93 -1z"/>
<path d="M6504 1477 c-9 -24 1 -190 11 -194 27 -8 37 17 39 93 1 44 -2 87 -6
97 -10 20 -36 23 -44 4z"/>
<path d="M6595 1477 c-3 -7 -5 -54 -3 -103 l3 -89 48 -3 c45 -3 47 -2 47 23 0
18 -7 28 -25 35 -22 8 -24 15 -27 77 -2 55 -6 68 -21 71 -9 2 -19 -3 -22 -11z"/>
<path d="M6700 1472 c0 -11 9 -29 20 -42 23 -26 28 -45 32 -105 2 -32 7 -41
24 -43 16 -2 23 4 28 23 4 15 4 36 1 46 -4 12 1 31 11 47 25 37 44 73 44 83 0
5 -11 9 -25 9 -18 0 -28 -7 -35 -25 -5 -14 -14 -25 -19 -25 -5 0 -18 11 -29
25 -23 29 -52 33 -52 7z"/>
<path d="M6880 1335 c-10 -12 -10 -21 -1 -41 17 -38 46 -28 46 16 0 39 -23 52
-45 25z"/>
</g>
</svg>
